<svg width="27" height="27" viewBox="0 0 27 27" fill="none" xmlns="http://www.w3.org/2000/svg">
<path d="M9 24C9.5523 24 10 23.5523 10 23C10 22.4477 9.5523 22 9 22C8.4477 22 8 22.4477 8 23C8 23.5523 8.4477 24 9 24Z" stroke="black" stroke-width="1.5" stroke-linecap="round" stroke-linejoin="round"/>
<path d="M23 24C23.5523 24 24 23.5523 24 23C24 22.4477 23.5523 22 23 22C22.4477 22 22 22.4477 22 23C22 23.5523 22.4477 24 23 24Z" stroke="black" stroke-width="1.5" stroke-linecap="round" stroke-linejoin="round"/>
<path d="M1 2H5L8 19H24" stroke="black" stroke-width="1.5" stroke-linecap="round" stroke-linejoin="round"/>
<path d="M8 13.6665H23.59C23.7056 13.6666 23.8177 13.6266 23.9072 13.5533C23.9966 13.48 24.0579 13.378 24.0806 13.2646L25.8806 4.26463C25.8951 4.19206 25.8934 4.11717 25.8755 4.04536C25.8575 3.97355 25.8239 3.90662 25.7769 3.8494C25.73 3.79218 25.6709 3.74609 25.604 3.71446C25.5371 3.68283 25.464 3.66645 25.39 3.6665H6" stroke="black" stroke-width="1.5" stroke-linecap="round" stroke-linejoin="round"/>
</svg>
