<svg width="22" height="17" viewBox="0 0 22 17" fill="none" xmlns="http://www.w3.org/2000/svg">
<path d="M20.6302 7.20224C21.1233 7.84723 21.1233 8.71795 20.6302 9.3619C19.077 11.3894 15.3507 15.5641 11.0002 15.5641C6.64964 15.5641 2.9233 11.3894 1.37014 9.3619C1.13023 9.05307 1 8.67314 1 8.28207C1 7.891 1.13023 7.51107 1.37014 7.20224C2.9233 5.17471 6.64964 1 11.0002 1C15.3507 1 19.077 5.17471 20.6302 7.20224V7.20224Z" stroke="black" stroke-linecap="round" stroke-linejoin="round"/>
<path d="M10.9998 11.4029C12.7234 11.4029 14.1207 10.0056 14.1207 8.28202C14.1207 6.5584 12.7234 5.16113 10.9998 5.16113C9.27618 5.16113 7.87891 6.5584 7.87891 8.28202C7.87891 10.0056 9.27618 11.4029 10.9998 11.4029Z" stroke="black" stroke-linecap="round" stroke-linejoin="round"/>
</svg>
