<svg width="32" height="32" viewBox="0 0 32 32" fill="none" xmlns="http://www.w3.org/2000/svg">
<path d="M17.334 13.3333H23.334L22.6673 16H17.334V28H14.6673V16H9.33398V13.3333H14.6673V10.8373C14.6673 8.46 14.9153 7.59733 15.3793 6.728C15.834 5.86908 16.5364 5.16668 17.3953 4.712C18.2647 4.248 19.1273 4 21.5047 4C22.2007 4 22.8113 4.06667 23.334 4.2V6.66667H21.5047C19.7393 6.66667 19.202 6.77067 18.654 7.064C18.2487 7.28 17.9473 7.58133 17.7313 7.98667C17.438 8.53467 17.334 9.072 17.334 10.8373V13.3333Z" fill="white"/>
</svg>
