<svg width="80" height="80" viewBox="0 0 80 80" fill="none" xmlns="http://www.w3.org/2000/svg">
<path opacity="0.3" d="M80 40C80 62.0914 62.0914 80 40 80C17.9086 80 0 62.0914 0 40C0 17.9086 17.9086 0 40 0C62.0914 0 80 17.9086 80 40ZM10.9071 40C10.9071 56.0675 23.9325 69.0929 40 69.0929C56.0675 69.0929 69.0929 56.0675 69.0929 40C69.0929 23.9325 56.0675 10.9071 40 10.9071C23.9325 10.9071 10.9071 23.9325 10.9071 40Z" fill="#2F2E30"/>
<circle cx="40" cy="40" r="29" fill="black"/>
<path d="M27.9509 50.8001L27.9507 50.8C27.0394 50.1204 26.2162 49.0587 25.6206 47.8716C25.025 46.6845 24.668 45.3938 24.668 44.2671V31.8671C24.668 29.4041 26.4871 26.7647 28.8052 25.9013L28.8057 25.9012L37.1222 22.7846C37.1222 22.7846 37.1222 22.7845 37.1223 22.7845C37.9115 22.4896 38.9425 22.3379 39.9846 22.3379C41.0268 22.3379 42.0577 22.4896 42.847 22.7845C42.847 22.7845 42.8471 22.7846 42.8471 22.7846L51.1636 25.9012L51.1641 25.9013C53.4822 26.7647 55.3013 29.4041 55.3013 31.8671V44.2504C55.3013 45.3856 54.9442 46.6763 54.3488 47.861C53.7533 49.0458 52.9302 50.1036 52.0185 50.7833L52.0184 50.7834L44.8517 56.1334L44.8517 56.1334L44.8486 56.1357C43.5156 57.1636 41.7716 57.6837 40.0013 57.6837C38.2316 57.6837 36.4853 57.1639 35.1168 56.1495L27.9509 50.8001ZM37.8306 24.6662L37.8302 24.6663L29.5136 27.783L29.5132 27.7831C28.7453 28.0722 28.0413 28.695 27.5311 29.4332C27.0207 30.1716 26.6846 31.0537 26.6846 31.8837V44.2671C26.6846 45.1101 26.9795 46.0992 27.4257 46.9895C27.8719 47.8797 28.4854 48.7032 29.1517 49.2007L29.1517 49.2007L36.3182 54.5506C37.3284 55.306 38.6717 55.6754 40.0034 55.6754C41.3352 55.6754 42.6821 55.306 43.7002 54.5512L43.7009 54.5507L50.8675 49.2007L50.868 49.2004C51.542 48.6949 52.1556 47.8717 52.5999 46.983C53.0442 46.0944 53.3346 45.1096 53.3346 44.2671V31.8671C53.3346 31.0448 52.9982 30.1669 52.4882 29.4291C51.9782 28.6911 51.275 28.0649 50.5084 27.7673L50.5085 27.7673L50.5057 27.7663L42.189 24.6496L42.189 24.6496L42.1845 24.648C41.5821 24.4354 40.7847 24.3337 40.0027 24.3358C39.2211 24.3379 38.4264 24.4438 37.8306 24.6662Z" fill="#FAFAFA" stroke="#FAFAFA" stroke-width="0.5"/>
<path d="M37.5903 40.8773L37.7671 41.0541L37.9438 40.8773L44.2272 34.594C44.6129 34.2083 45.2546 34.2083 45.6403 34.594C46.026 34.9797 46.026 35.6214 45.6403 36.0071L38.4736 43.1737C38.273 43.3744 38.021 43.4672 37.7671 43.4672C37.5131 43.4672 37.2611 43.3744 37.0605 43.1737L34.3772 40.4904C33.9915 40.1047 33.9915 39.463 34.3772 39.0773C34.7629 38.6916 35.4046 38.6916 35.7903 39.0773L37.5903 40.8773Z" fill="#FAFAFA" stroke="#FAFAFA" stroke-width="0.5"/>
</svg>
