<svg width="81" height="80" viewBox="0 0 81 80" fill="none" xmlns="http://www.w3.org/2000/svg">
<path opacity="0.3" d="M80.5 40C80.5 62.0914 62.5914 80 40.5 80C18.4086 80 0.5 62.0914 0.5 40C0.5 17.9086 18.4086 0 40.5 0C62.5914 0 80.5 17.9086 80.5 40ZM11.4071 40C11.4071 56.0675 24.4325 69.0929 40.5 69.0929C56.5675 69.0929 69.5929 56.0675 69.5929 40C69.5929 23.9325 56.5675 10.9071 40.5 10.9071C24.4325 10.9071 11.4071 23.9325 11.4071 40Z" fill="#2F2E30"/>
<circle cx="40.5" cy="40" r="29" fill="black"/>
<g clip-path="url(#clip0_1042_2141)">
<path d="M32.1654 51.6667C34.0063 51.6667 35.4987 50.1743 35.4987 48.3333C35.4987 46.4924 34.0063 45 32.1654 45C30.3244 45 28.832 46.4924 28.832 48.3333C28.832 50.1743 30.3244 51.6667 32.1654 51.6667Z" stroke="#FAFAFA" stroke-linecap="round" stroke-linejoin="round"/>
<path d="M48.8333 51.6667C50.6743 51.6667 52.1667 50.1743 52.1667 48.3333C52.1667 46.4924 50.6743 45 48.8333 45C46.9924 45 45.5 46.4924 45.5 48.3333C45.5 50.1743 46.9924 51.6667 48.8333 51.6667Z" stroke="#FAFAFA" stroke-linecap="round" stroke-linejoin="round"/>
<path d="M28.832 48.334H26.4987C25.9464 48.334 25.4987 47.8863 25.4987 47.334V41.6673M23.832 28.334H41.1654C41.7177 28.334 42.1654 28.7817 42.1654 29.334V48.334M35.4987 48.334H45.4987M52.1654 48.334H54.4987C55.051 48.334 55.4987 47.8863 55.4987 47.334V38.334M55.4987 38.334H42.1654M55.4987 38.334L50.79 30.4862C50.6093 30.1849 50.2838 30.0007 49.9325 30.0007H42.1654" stroke="#FAFAFA" stroke-linecap="round" stroke-linejoin="round"/>
<path d="M28.5 48H26.1667C25.6144 48 25.1667 47.5523 25.1667 47V41.3333M23.5 28H40.8333C41.3856 28 41.8333 28.4477 41.8333 29V48M35.5 48H45.1667M52.5 48H54.1667C54.719 48 55.1667 47.5523 55.1667 47V38M55.1667 38H41.8333M55.1667 38L50.458 30.1522C50.2773 29.851 49.9517 29.6667 49.6005 29.6667H41.8333" stroke="#FAFAFA" stroke-linecap="round" stroke-linejoin="round"/>
<path d="M25.5 31.8184H32.1667" stroke="#FAFAFA" stroke-linecap="round" stroke-linejoin="round"/>
<path d="M22.3184 35.4551H28.985" stroke="#FAFAFA" stroke-linecap="round" stroke-linejoin="round"/>
<path d="M25.5 39.0908H32.1667" stroke="#FAFAFA" stroke-linecap="round" stroke-linejoin="round"/>
</g>
<defs>
<clipPath id="clip0_1042_2141">
<rect width="40" height="40" fill="white" transform="translate(20.5 20)"/>
</clipPath>
</defs>
</svg>
