<svg width="81" height="80" viewBox="0 0 81 80" fill="none" xmlns="http://www.w3.org/2000/svg">
<path opacity="0.3" d="M80.5 40C80.5 62.0914 62.5914 80 40.5 80C18.4086 80 0.5 62.0914 0.5 40C0.5 17.9086 18.4086 0 40.5 0C62.5914 0 80.5 17.9086 80.5 40ZM11.4071 40C11.4071 56.0675 24.4325 69.0929 40.5 69.0929C56.5675 69.0929 69.5929 56.0675 69.5929 40C69.5929 23.9325 56.5675 10.9071 40.5 10.9071C24.4325 10.9071 11.4071 23.9325 11.4071 40Z" fill="#2F2E30"/>
<circle cx="40.5" cy="40" r="29" fill="black"/>
<g clip-path="url(#clip0_1042_2168)">
<path d="M33.8346 44.9993C33.8346 43.1584 32.3423 41.666 30.5013 41.666C28.6604 41.666 27.168 43.1584 27.168 44.9993V48.3327C27.168 50.1736 28.6604 51.666 30.5013 51.666C32.3423 51.666 33.8346 50.1736 33.8346 48.3327V44.9993Z" stroke="white" stroke-linecap="round" stroke-linejoin="round"/>
<path d="M53.8346 44.9993C53.8346 43.1584 52.3423 41.666 50.5013 41.666C48.6604 41.666 47.168 43.1584 47.168 44.9993V48.3327C47.168 50.1736 48.6604 51.666 50.5013 51.666C52.3423 51.666 53.8346 50.1736 53.8346 48.3327V44.9993Z" stroke="white" stroke-linecap="round" stroke-linejoin="round"/>
<path d="M27.168 44.9994V39.9994C27.168 36.4631 28.5727 33.0717 31.0732 30.5713C33.5737 28.0708 36.9651 26.666 40.5013 26.666C44.0375 26.666 47.4289 28.0708 49.9294 30.5713C52.4299 33.0717 53.8346 36.4631 53.8346 39.9994V44.9994" stroke="white" stroke-linecap="round" stroke-linejoin="round"/>
<path d="M50.5 51.666C50.5 52.9921 49.4464 54.2639 47.5711 55.2015C45.6957 56.1392 43.1522 56.666 40.5 56.666" stroke="white" stroke-linecap="round" stroke-linejoin="round"/>
</g>
<defs>
<clipPath id="clip0_1042_2168">
<rect width="40" height="40" fill="white" transform="translate(20.5 20)"/>
</clipPath>
</defs>
</svg>
