<svg width="32" height="32" viewBox="0 0 32 32" fill="none" xmlns="http://www.w3.org/2000/svg">
<path d="M22.6667 4H9.33333C7.91885 4 6.56229 4.5619 5.5621 5.5621C4.5619 6.56229 4 7.91885 4 9.33333V22.6667C4 24.0812 4.5619 25.4377 5.5621 26.4379C6.56229 27.4381 7.91885 28 9.33333 28H22.6667C24.0812 28 25.4377 27.4381 26.4379 26.4379C27.4381 25.4377 28 24.0812 28 22.6667V9.33333C28 7.91885 27.4381 6.56229 26.4379 5.5621C25.4377 4.5619 24.0812 4 22.6667 4Z" stroke="white" stroke-width="2" stroke-linejoin="round"/>
<path d="M16.0013 21.3327C17.4158 21.3327 18.7723 20.7708 19.7725 19.7706C20.7727 18.7704 21.3346 17.4138 21.3346 15.9993C21.3346 14.5849 20.7727 13.2283 19.7725 12.2281C18.7723 11.2279 17.4158 10.666 16.0013 10.666C14.5868 10.666 13.2303 11.2279 12.2301 12.2281C11.2299 13.2283 10.668 14.5849 10.668 15.9993C10.668 17.4138 11.2299 18.7704 12.2301 19.7706C13.2303 20.7708 14.5868 21.3327 16.0013 21.3327V21.3327Z" stroke="white" stroke-width="2" stroke-linejoin="round"/>
<path d="M23.3333 10.0007C23.687 10.0007 24.0261 9.86017 24.2761 9.61013C24.5262 9.36008 24.6667 9.02094 24.6667 8.66732C24.6667 8.3137 24.5262 7.97456 24.2761 7.72451C24.0261 7.47446 23.687 7.33398 23.3333 7.33398C22.9797 7.33398 22.6406 7.47446 22.3905 7.72451C22.1405 7.97456 22 8.3137 22 8.66732C22 9.02094 22.1405 9.36008 22.3905 9.61013C22.6406 9.86017 22.9797 10.0007 23.3333 10.0007Z" fill="white"/>
</svg>
