<svg width="32" height="32" viewBox="0 0 32 32" fill="none" xmlns="http://www.w3.org/2000/svg">
<path d="M15.3333 12.0667C16.556 10.8173 18.148 10 20 10C21.9449 10 23.8102 10.7726 25.1855 12.1479C26.5607 13.5232 27.3333 15.3884 27.3333 17.3333V27.3333H24.6667V17.3333C24.6667 16.0957 24.175 14.9087 23.2998 14.0335C22.4247 13.1583 21.2377 12.6667 20 12.6667C18.7623 12.6667 17.5753 13.1583 16.7002 14.0335C15.825 14.9087 15.3333 16.0957 15.3333 17.3333V27.3333H12.6667V10.6667H15.3333V12.0667ZM6 8C5.46957 8 4.96086 7.78929 4.58579 7.41421C4.21071 7.03914 4 6.53043 4 6C4 5.46957 4.21071 4.96086 4.58579 4.58579C4.96086 4.21071 5.46957 4 6 4C6.53043 4 7.03914 4.21071 7.41421 4.58579C7.78929 4.96086 8 5.46957 8 6C8 6.53043 7.78929 7.03914 7.41421 7.41421C7.03914 7.78929 6.53043 8 6 8ZM4.66667 10.6667H7.33333V27.3333H4.66667V10.6667Z" fill="white"/>
</svg>
