<svg width="32" height="32" viewBox="0 0 32 32" fill="none" xmlns="http://www.w3.org/2000/svg">
<g clip-path="url(#clip0_1052_2269)">
<path d="M17.2913 11.7965V11.7965C17.3101 10.7702 17.731 9.79224 18.4635 9.07313C19.196 8.35403 20.1815 7.95122 21.208 7.95139C22.5087 7.95139 23.5006 8.51264 24.1666 9.1537C24.4995 9.47412 24.7515 9.81495 24.9206 10.1167C25.0885 10.4164 25.178 10.6837 25.178 10.8561C25.178 14.7691 24.1298 17.916 22.2895 20.2427C20.4492 22.5696 17.8198 24.0724 14.6644 24.7024L14.6644 24.7024C13.6644 24.9008 12.4613 24.9568 11.1955 24.878L11.0573 24.8694L11.1691 24.7877L13.2918 23.237L13.2919 23.237C13.3909 23.1648 13.4708 23.0695 13.5245 22.9593C13.5782 22.8492 13.6041 22.7276 13.5999 22.6051C13.5957 22.4826 13.5615 22.363 13.5004 22.2568C13.4393 22.1506 13.3531 22.0609 13.2494 21.9957L13.276 21.9534L13.2494 21.9957L10.92 20.5317L10.92 20.5317C9.03919 19.3489 7.70427 17.9884 6.94057 16.3665C6.1767 14.7443 5.98668 12.8657 6.38677 10.6512L6.40203 10.5667L6.46797 10.6216C8.97971 12.7143 11.5952 13.9707 14.3227 14.3425L16.404 14.6252L17.2913 11.7965ZM17.2913 11.7965L17.254 13.8964M17.2913 11.7965L17.254 13.8964M17.254 13.8964C17.2519 14.0021 17.2276 14.1062 17.1825 14.2018C17.1374 14.2974 17.0725 14.3825 16.9923 14.4513C16.912 14.5201 16.8181 14.5712 16.7167 14.6011C16.6154 14.6311 16.5088 14.6393 16.404 14.6252L17.254 13.8964ZM14.725 11.7277C14.7522 10.4598 15.1506 9.22743 15.8712 8.18342C16.5958 7.13359 17.6141 6.32085 18.7984 5.84697C19.9828 5.37309 21.2806 5.25912 22.5294 5.51933C23.7782 5.77955 24.9225 6.40239 25.8191 7.30986L25.8339 7.32487L25.855 7.32472C25.9983 7.32371 26.1402 7.32854 26.2838 7.33344C26.6069 7.34445 26.9394 7.35578 27.32 7.30173C27.8536 7.22593 28.4851 7.02235 29.3416 6.51595C28.91 8.62362 28.683 9.55307 27.7542 10.8266L27.7446 10.8398V10.8561C27.7446 15.9398 26.1826 19.7137 23.8315 22.3744C21.4799 25.0358 18.336 26.5868 15.1675 27.219C12.9973 27.652 10.331 27.5132 7.97972 27.0288C6.80443 26.7866 5.70924 26.4584 4.79536 26.073C3.9301 25.7081 3.23078 25.2933 2.77919 24.8544C3.30066 24.8095 4.40291 24.6862 5.64063 24.3983C6.97016 24.0889 8.46133 23.5884 9.55617 22.7871L9.61423 22.7446L9.55415 22.705C9.49839 22.6682 9.43764 22.6286 9.37239 22.5861C8.36071 21.9271 6.26715 20.5634 4.90354 18.0616C3.4599 15.4131 2.83043 11.4806 5.19372 5.74372C7.43719 8.34987 9.71495 10.1299 12.0263 11.0783L12.0453 11.0321L12.0263 11.0783C12.7996 11.3955 13.283 11.5516 13.6627 11.6404C13.9501 11.7076 14.1782 11.7363 14.4248 11.7672C14.5035 11.7771 14.5841 11.7872 14.6692 11.7989L14.8166 11.8192L14.725 11.7277Z" fill="white" stroke="black" stroke-width="0.1"/>
</g>
<defs>
<clipPath id="clip0_1052_2269">
<rect width="32" height="32" fill="white"/>
</clipPath>
</defs>
</svg>
