<svg width="32" height="30" viewBox="0 0 32 30" fill="none" xmlns="http://www.w3.org/2000/svg">
<g clip-path="url(#clip0_1036_1959)">
<path d="M5.11111 6.88932H6.66667C7.49178 6.88932 8.28311 6.56155 8.86655 5.9781C9.45 5.39465 9.77778 4.60333 9.77778 3.77821C9.77778 3.36565 9.94167 2.96999 10.2334 2.67827C10.5251 2.38654 10.9208 2.22266 11.3333 2.22266H20.6667C21.0792 2.22266 21.4749 2.38654 21.7666 2.67827C22.0583 2.96999 22.2222 3.36565 22.2222 3.77821C22.2222 4.60333 22.55 5.39465 23.1334 5.9781C23.7169 6.56155 24.5082 6.88932 25.3333 6.88932H26.8889C27.714 6.88932 28.5053 7.2171 29.0888 7.80055C29.6722 8.38399 30 9.17532 30 10.0004V24.0004C30 24.8255 29.6722 25.6169 29.0888 26.2003C28.5053 26.7838 27.714 27.1115 26.8889 27.1115H5.11111C4.28599 27.1115 3.49467 26.7838 2.91122 26.2003C2.32778 25.6169 2 24.8255 2 24.0004V10.0004C2 9.17532 2.32778 8.38399 2.91122 7.80055C3.49467 7.2171 4.28599 6.88932 5.11111 6.88932" stroke="black" stroke-linecap="round" stroke-linejoin="round"/>
<path d="M16.0007 20.8895C18.578 20.8895 20.6673 18.8001 20.6673 16.2228C20.6673 13.6455 18.578 11.5562 16.0007 11.5562C13.4233 11.5562 11.334 13.6455 11.334 16.2228C11.334 18.8001 13.4233 20.8895 16.0007 20.8895Z" stroke="black" stroke-linecap="round" stroke-linejoin="round"/>
</g>
<defs>
<clipPath id="clip0_1036_1959">
<rect width="32" height="29.3333" fill="white"/>
</clipPath>
</defs>
</svg>
