<svg width="32" height="32" viewBox="0 0 32 32" fill="none" xmlns="http://www.w3.org/2000/svg">
<path d="M5.14602 28.7272H26.8551L25.2733 15.6363H30.7824L28.4915 3.09082H19.1642L19.1097 3.58173C19.0006 5.05446 17.746 6.19991 16.2733 6.19991C14.8006 6.19991 13.546 5.05446 13.4369 3.58173L13.3824 3.09082H3.50966L1.21875 15.4181H6.72784L5.14602 28.7272ZM2.52784 14.3272L4.43693 4.18173H12.4006C12.7824 5.98173 14.3642 7.34537 16.2733 7.34537C18.1278 7.34537 19.7642 5.98173 20.146 4.18173H27.6187L29.5278 14.5454H25.2188L24.7278 10.2908L23.6369 10.3999L25.6006 27.6363H6.40057L8.41875 10.4545L7.32784 10.3454L6.83693 14.3817H2.52784V14.3272Z" fill="black"/>
</svg>
