<svg width="30" height="30" viewBox="0 0 30 30" fill="none" xmlns="http://www.w3.org/2000/svg">
<g clip-path="url(#clip0_1036_1968)">
<path d="M7.04812 16.5913H5.45721C3.69994 16.5913 2.27539 18.0159 2.27539 19.7731V24.5459C2.27539 26.3031 3.69994 27.7277 5.45721 27.7277H7.04812C8.80539 27.7277 10.2299 26.3031 10.2299 24.5459V19.7731C10.2299 18.0159 8.80539 16.5913 7.04812 16.5913Z" stroke="black" stroke-linecap="round" stroke-linejoin="round"/>
<path d="M24.5462 16.5913H22.9553C21.198 16.5913 19.7734 18.0159 19.7734 19.7731V24.5459C19.7734 26.3031 21.198 27.7277 22.9553 27.7277H24.5462C26.3034 27.7277 27.728 26.3031 27.728 24.5459V19.7731C27.728 18.0159 26.3034 16.5913 24.5462 16.5913Z" stroke="black" stroke-linecap="round" stroke-linejoin="round"/>
<path d="M2.27539 19.773V15.0002C2.27539 11.6247 3.6163 8.38751 6.00312 6.00068C8.38995 3.61385 11.6272 2.27295 15.0027 2.27295C18.3781 2.27295 21.6154 3.61385 24.0022 6.00068C26.389 8.38751 27.7299 11.6247 27.7299 15.0002V19.773" stroke="black" stroke-linecap="round" stroke-linejoin="round"/>
</g>
<defs>
<clipPath id="clip0_1036_1968">
<rect width="30" height="30" fill="white"/>
</clipPath>
</defs>
</svg>
